<svg xmlns="http://www.w3.org/2000/svg" xmlns:xlink="http://www.w3.org/1999/xlink" width="1080" zoomAndPan="magnify" viewBox="0 0 810 809.999993" height="1080" preserveAspectRatio="xMidYMid meet" version="1.0"><defs><clipPath id="4471fe56c2"><path d="M 21.074219 23.890625 L 141.199219 23.890625 L 141.199219 144.019531 L 21.074219 144.019531 Z M 21.074219 23.890625 " clip-rule="nonzero"/></clipPath><clipPath id="4aec7da26d"><path d="M 663.019531 143.746094 L 759.875 143.746094 L 759.875 240.597656 L 663.019531 240.597656 Z M 663.019531 143.746094 " clip-rule="nonzero"/></clipPath><clipPath id="51f908ef39"><path d="M 33.613281 432.53125 L 104.398438 432.53125 L 104.398438 503.3125 L 33.613281 503.3125 Z M 33.613281 432.53125 " clip-rule="nonzero"/></clipPath><clipPath id="b1c921b55f"><path d="M 369.6875 35.964844 L 440.472656 35.964844 L 440.472656 106.75 L 369.6875 106.75 Z M 369.6875 35.964844 " clip-rule="nonzero"/></clipPath><clipPath id="6c71ac7913"><path d="M 639.179688 432.53125 L 783.824219 432.53125 L 783.824219 577.175781 L 639.179688 577.175781 Z M 639.179688 432.53125 " clip-rule="nonzero"/></clipPath><clipPath id="dd7620978e"><path d="M 128.386719 677.96875 L 208.480469 677.96875 L 208.480469 758.0625 L 128.386719 758.0625 Z M 128.386719 677.96875 " clip-rule="nonzero"/></clipPath><clipPath id="afbbb6f2a5"><path d="M 477.269531 661.867188 L 589.636719 661.867188 L 589.636719 774.234375 L 477.269531 774.234375 Z M 477.269531 661.867188 " clip-rule="nonzero"/></clipPath></defs><g clip-path="url(#4471fe56c2)"><path fill="#d9d9d9" d="M 24.574219 104.121094 C 24.246094 103.246094 23.972656 102.316406 23.699219 101.441406 L 98.675781 26.460938 C 99.550781 26.734375 100.484375 27.011719 101.359375 27.339844 Z M 89.921875 24.546875 C 88.878906 24.382812 87.785156 24.273438 86.746094 24.164062 L 21.347656 89.5625 C 21.457031 90.605469 21.566406 91.699219 21.730469 92.738281 Z M 115.421875 34.617188 C 114.710938 34.125 114 33.632812 113.289062 33.195312 L 30.375 116.105469 C 30.8125 116.816406 31.308594 117.53125 31.800781 118.242188 Z M 106.394531 29.417969 C 105.574219 29.035156 104.75 28.652344 103.929688 28.324219 L 25.558594 106.695312 C 25.890625 107.515625 26.273438 108.335938 26.65625 109.15625 Z M 111.046875 31.878906 C 110.277344 31.441406 109.511719 31.003906 108.746094 30.621094 L 27.75 111.617188 C 28.132812 112.386719 28.570312 113.152344 29.007812 113.917969 Z M 57.027344 28.925781 C 54.457031 30.074219 51.9375 31.386719 49.53125 32.867188 L 30.046875 52.347656 C 28.515625 54.757812 27.203125 57.273438 26.109375 59.847656 Z M 79.851562 23.890625 L 21.074219 82.667969 C 21.074219 83.871094 21.074219 85.019531 21.128906 86.226562 L 83.351562 23.945312 C 82.203125 23.890625 81 23.890625 79.851562 23.890625 Z M 141.199219 83.652344 L 80.835938 144.019531 C 82.039062 144.019531 83.296875 144.019531 84.503906 143.910156 L 141.089844 87.320312 C 141.144531 86.117188 141.199219 84.855469 141.199219 83.652344 Z M 119.472656 37.738281 C 118.816406 37.1875 118.160156 36.640625 117.503906 36.148438 L 33.332031 120.320312 C 33.824219 120.976562 34.371094 121.632812 34.917969 122.292969 Z M 76.074219 24.109375 C 74.707031 24.21875 73.390625 24.382812 72.023438 24.601562 L 21.785156 74.84375 C 21.566406 76.210938 21.402344 77.523438 21.292969 78.890625 Z M 67.644531 25.421875 C 66.003906 25.804688 64.363281 26.242188 62.71875 26.789062 L 23.917969 65.539062 C 23.425781 67.179688 22.933594 68.765625 22.550781 70.464844 Z M 95.832031 25.695312 C 94.847656 25.476562 93.914062 25.257812 92.929688 25.039062 L 22.222656 95.746094 C 22.441406 96.734375 22.660156 97.664062 22.878906 98.648438 Z M 140.105469 95.417969 C 140.378906 93.996094 140.597656 92.628906 140.761719 91.207031 L 88.386719 143.582031 C 89.8125 143.414062 91.234375 143.195312 92.601562 142.921875 Z M 141.089844 80.207031 C 141.035156 79.109375 140.925781 78.015625 140.816406 76.921875 L 74.105469 143.582031 C 75.199219 143.691406 76.292969 143.800781 77.386719 143.855469 Z M 140.324219 73.800781 C 140.160156 72.816406 139.941406 71.832031 139.722656 70.847656 L 67.972656 142.539062 C 68.960938 142.757812 69.945312 142.976562 70.929688 143.140625 Z M 123.195312 41.074219 C 122.59375 40.472656 121.992188 39.925781 121.390625 39.324219 L 36.5625 124.152344 C 37.109375 124.753906 37.710938 125.355469 38.3125 125.957031 Z M 126.699219 123.058594 C 129.707031 119.554688 132.226562 115.832031 134.304688 111.894531 L 109.074219 137.121094 C 113.015625 135.042969 116.738281 132.523438 120.238281 129.515625 Z M 139.011719 68 C 138.738281 67.070312 138.464844 66.195312 138.191406 65.265625 L 62.445312 141.007812 C 63.378906 141.28125 64.253906 141.554688 65.183594 141.828125 Z M 137.261719 105.433594 C 137.917969 103.683594 138.519531 101.933594 139.011719 100.125 L 97.308594 141.828125 C 99.113281 141.335938 100.867188 140.734375 102.617188 140.078125 Z M 129.816406 48.738281 C 129.324219 48.082031 128.832031 47.367188 128.285156 46.710938 L 43.894531 131.046875 C 44.550781 131.59375 45.261719 132.085938 45.917969 132.578125 Z M 137.261719 62.636719 C 136.929688 61.761719 136.601562 60.941406 136.21875 60.121094 L 57.246094 139.09375 C 58.070312 139.476562 58.945312 139.804688 59.765625 140.132812 Z M 126.644531 44.742188 C 126.09375 44.085938 125.546875 43.484375 124.945312 42.882812 L 40.0625 127.765625 C 40.664062 128.367188 41.320312 128.914062 41.925781 129.460938 Z M 132.609375 53.003906 C 132.171875 52.292969 131.730469 51.527344 131.238281 50.816406 L 48 134.058594 C 48.710938 134.550781 49.421875 134.988281 50.1875 135.425781 Z M 135.125 57.65625 C 134.742188 56.890625 134.359375 56.070312 133.921875 55.304688 L 52.488281 136.738281 C 53.253906 137.175781 54.019531 137.558594 54.839844 137.941406 Z M 135.125 57.65625 " fill-opacity="1" fill-rule="nonzero"/></g><g clip-path="url(#4aec7da26d)"><path fill="#d9d9d9" d="M 665.84375 208.429688 C 665.582031 207.726562 665.359375 206.976562 665.140625 206.269531 L 725.589844 145.820312 C 726.296875 146.039062 727.046875 146.261719 727.75 146.523438 Z M 718.527344 144.273438 C 717.691406 144.140625 716.808594 144.054688 715.96875 143.964844 L 663.242188 196.695312 C 663.328125 197.53125 663.417969 198.414062 663.550781 199.253906 Z M 739.089844 152.394531 C 738.515625 151.996094 737.945312 151.597656 737.371094 151.246094 L 670.523438 218.09375 C 670.875 218.667969 671.273438 219.242188 671.667969 219.816406 Z M 731.808594 148.203125 C 731.148438 147.894531 730.488281 147.582031 729.824219 147.320312 L 666.640625 210.503906 C 666.902344 211.167969 667.210938 211.828125 667.523438 212.492188 Z M 735.5625 150.1875 C 734.941406 149.835938 734.324219 149.480469 733.707031 149.171875 L 668.402344 214.476562 C 668.714844 215.09375 669.066406 215.710938 669.417969 216.328125 Z M 692.011719 147.804688 C 689.9375 148.730469 687.90625 149.789062 685.964844 150.980469 L 670.257812 166.691406 C 669.023438 168.632812 667.964844 170.660156 667.082031 172.734375 Z M 710.410156 143.746094 L 663.019531 191.132812 C 663.019531 192.105469 663.019531 193.03125 663.066406 194.003906 L 713.234375 143.789062 C 712.308594 143.746094 711.335938 143.746094 710.410156 143.746094 Z M 759.875 191.929688 L 711.203125 240.597656 C 712.175781 240.597656 713.191406 240.597656 714.160156 240.507812 L 759.785156 194.882812 C 759.828125 193.914062 759.875 192.898438 759.875 191.929688 Z M 742.355469 154.910156 C 741.828125 154.46875 741.296875 154.027344 740.769531 153.628906 L 672.90625 221.492188 C 673.300781 222.019531 673.742188 222.550781 674.183594 223.078125 Z M 707.367188 143.921875 C 706.261719 144.007812 705.203125 144.140625 704.101562 144.320312 L 663.59375 184.824219 C 663.417969 185.925781 663.285156 186.988281 663.199219 188.089844 Z M 700.570312 144.980469 C 699.246094 145.289062 697.921875 145.640625 696.597656 146.082031 L 665.316406 177.324219 C 664.917969 178.648438 664.519531 179.925781 664.210938 181.292969 Z M 723.292969 145.199219 C 722.5 145.023438 721.75 144.847656 720.957031 144.671875 L 663.949219 201.679688 C 664.125 202.472656 664.300781 203.222656 664.476562 204.019531 Z M 758.992188 201.414062 C 759.210938 200.269531 759.386719 199.164062 759.519531 198.015625 L 717.292969 240.246094 C 718.441406 240.113281 719.589844 239.933594 720.691406 239.714844 Z M 759.785156 189.148438 C 759.742188 188.265625 759.652344 187.382812 759.5625 186.5 L 705.777344 240.246094 C 706.660156 240.332031 707.542969 240.421875 708.425781 240.464844 Z M 759.167969 183.984375 C 759.035156 183.191406 758.859375 182.398438 758.683594 181.601562 L 700.835938 239.40625 C 701.628906 239.582031 702.421875 239.757812 703.21875 239.890625 Z M 745.355469 157.601562 C 744.871094 157.113281 744.386719 156.671875 743.902344 156.1875 L 675.507812 224.582031 C 675.949219 225.066406 676.433594 225.550781 676.921875 226.035156 Z M 748.179688 223.699219 C 750.605469 220.875 752.636719 217.875 754.3125 214.695312 L 733.972656 235.039062 C 737.148438 233.359375 740.148438 231.332031 742.972656 228.90625 Z M 758.109375 179.308594 C 757.886719 178.558594 757.667969 177.851562 757.445312 177.101562 L 696.378906 238.171875 C 697.128906 238.390625 697.835938 238.613281 698.585938 238.832031 Z M 756.695312 209.488281 C 757.226562 208.078125 757.710938 206.664062 758.109375 205.210938 L 724.484375 238.832031 C 725.941406 238.433594 727.355469 237.949219 728.765625 237.421875 Z M 750.695312 163.777344 C 750.296875 163.246094 749.902344 162.675781 749.460938 162.144531 L 681.421875 230.140625 C 681.949219 230.582031 682.523438 230.976562 683.054688 231.375 Z M 756.695312 174.984375 C 756.429688 174.277344 756.167969 173.617188 755.859375 172.957031 L 692.1875 236.625 C 692.847656 236.933594 693.554688 237.199219 694.214844 237.464844 Z M 748.136719 160.554688 C 747.695312 160.027344 747.253906 159.542969 746.769531 159.054688 L 678.332031 227.492188 C 678.816406 227.976562 679.347656 228.417969 679.832031 228.859375 Z M 752.945312 167.21875 C 752.59375 166.644531 752.238281 166.027344 751.84375 165.453125 L 684.730469 232.566406 C 685.304688 232.964844 685.878906 233.316406 686.496094 233.667969 Z M 754.976562 170.96875 C 754.667969 170.351562 754.359375 169.691406 754.003906 169.070312 L 688.347656 234.730469 C 688.964844 235.082031 689.582031 235.390625 690.246094 235.699219 Z M 754.976562 170.96875 " fill-opacity="1" fill-rule="nonzero"/></g><g clip-path="url(#51f908ef39)"><path fill="#d9d9d9" d="M 35.675781 479.804688 C 35.484375 479.289062 35.320312 478.742188 35.160156 478.226562 L 79.339844 434.046875 C 79.855469 434.207031 80.40625 434.367188 80.921875 434.5625 Z M 74.179688 432.917969 C 73.566406 432.820312 72.921875 432.757812 72.308594 432.691406 L 33.773438 471.226562 C 33.839844 471.839844 33.902344 472.484375 34 473.097656 Z M 89.207031 438.851562 C 88.789062 438.5625 88.371094 438.269531 87.949219 438.011719 L 39.09375 486.867188 C 39.351562 487.285156 39.644531 487.707031 39.933594 488.125 Z M 83.886719 435.789062 C 83.402344 435.5625 82.917969 435.335938 82.4375 435.140625 L 36.257812 481.320312 C 36.449219 481.804688 36.675781 482.289062 36.902344 482.773438 Z M 86.628906 437.238281 C 86.175781 436.980469 85.726562 436.722656 85.273438 436.496094 L 37.546875 484.222656 C 37.773438 484.675781 38.03125 485.125 38.289062 485.578125 Z M 54.800781 435.496094 C 53.285156 436.175781 51.800781 436.949219 50.382812 437.820312 L 38.902344 449.300781 C 38 450.71875 37.222656 452.203125 36.578125 453.71875 Z M 68.246094 432.53125 L 33.613281 467.164062 C 33.613281 467.875 33.613281 468.550781 33.644531 469.261719 L 70.3125 432.5625 C 69.632812 432.53125 68.925781 432.53125 68.246094 432.53125 Z M 104.398438 467.746094 L 68.828125 503.3125 C 69.535156 503.3125 70.277344 503.3125 70.988281 503.25 L 104.332031 469.90625 C 104.363281 469.195312 104.398438 468.453125 104.398438 467.746094 Z M 91.59375 440.6875 C 91.207031 440.367188 90.820312 440.042969 90.433594 439.753906 L 40.835938 489.351562 C 41.125 489.738281 41.449219 490.125 41.773438 490.511719 Z M 66.023438 432.660156 C 65.214844 432.722656 64.441406 432.820312 63.636719 432.949219 L 34.03125 462.554688 C 33.902344 463.359375 33.804688 464.132812 33.742188 464.9375 Z M 61.054688 433.433594 C 60.089844 433.660156 59.121094 433.917969 58.152344 434.238281 L 35.289062 457.070312 C 35 458.039062 34.710938 458.972656 34.484375 459.972656 Z M 77.664062 433.59375 C 77.082031 433.464844 76.535156 433.335938 75.953125 433.207031 L 34.289062 474.871094 C 34.417969 475.453125 34.546875 476 34.675781 476.582031 Z M 103.75 474.679688 C 103.914062 473.839844 104.042969 473.035156 104.140625 472.195312 L 73.277344 503.054688 C 74.117188 502.960938 74.953125 502.832031 75.761719 502.667969 Z M 104.332031 465.714844 C 104.300781 465.066406 104.234375 464.421875 104.171875 463.777344 L 64.859375 503.054688 C 65.507812 503.121094 66.152344 503.183594 66.796875 503.21875 Z M 103.878906 461.941406 C 103.785156 461.359375 103.65625 460.78125 103.527344 460.199219 L 61.25 502.445312 C 61.828125 502.574219 62.410156 502.703125 62.992188 502.796875 Z M 93.789062 442.65625 C 93.433594 442.300781 93.078125 441.980469 92.722656 441.625 L 42.738281 491.609375 C 43.0625 491.964844 43.417969 492.316406 43.769531 492.671875 Z M 95.851562 490.964844 C 97.625 488.898438 99.109375 486.707031 100.332031 484.382812 L 85.46875 499.25 C 87.789062 498.027344 89.980469 496.542969 92.046875 494.769531 Z M 103.105469 458.523438 C 102.945312 457.972656 102.785156 457.457031 102.621094 456.910156 L 57.992188 501.539062 C 58.539062 501.703125 59.054688 501.863281 59.605469 502.023438 Z M 102.074219 480.578125 C 102.460938 479.546875 102.816406 478.515625 103.105469 477.453125 L 78.535156 502.023438 C 79.597656 501.734375 80.628906 501.378906 81.660156 500.992188 Z M 97.6875 447.171875 C 97.398438 446.785156 97.109375 446.363281 96.785156 445.976562 L 47.058594 495.671875 C 47.445312 495.992188 47.867188 496.285156 48.253906 496.574219 Z M 102.074219 455.363281 C 101.882812 454.847656 101.6875 454.363281 101.460938 453.878906 L 54.929688 500.410156 C 55.414062 500.636719 55.929688 500.832031 56.410156 501.023438 Z M 95.820312 444.816406 C 95.496094 444.429688 95.171875 444.074219 94.820312 443.71875 L 44.804688 493.738281 C 45.15625 494.089844 45.542969 494.414062 45.898438 494.734375 Z M 99.332031 449.6875 C 99.074219 449.265625 98.816406 448.816406 98.527344 448.394531 L 49.480469 497.445312 C 49.898438 497.734375 50.316406 497.992188 50.769531 498.25 Z M 100.816406 452.425781 C 100.589844 451.976562 100.367188 451.492188 100.109375 451.039062 L 52.121094 499.023438 C 52.574219 499.28125 53.027344 499.507812 53.507812 499.734375 Z M 100.816406 452.425781 " fill-opacity="1" fill-rule="nonzero"/></g><g clip-path="url(#b1c921b55f)"><path fill="#d9d9d9" d="M 371.753906 83.242188 C 371.558594 82.726562 371.398438 82.175781 371.238281 81.660156 L 415.414062 37.480469 C 415.933594 37.644531 416.480469 37.804688 416.996094 37.996094 Z M 410.257812 36.351562 C 409.644531 36.257812 409 36.191406 408.386719 36.128906 L 369.851562 74.664062 C 369.914062 75.277344 369.980469 75.921875 370.074219 76.535156 Z M 425.285156 42.285156 C 424.863281 41.996094 424.445312 41.707031 424.027344 41.449219 L 375.171875 90.304688 C 375.429688 90.722656 375.71875 91.140625 376.007812 91.5625 Z M 419.960938 39.222656 C 419.480469 38.996094 418.996094 38.773438 418.511719 38.578125 L 372.332031 84.757812 C 372.527344 85.242188 372.753906 85.722656 372.976562 86.207031 Z M 422.703125 40.675781 C 422.253906 40.417969 421.800781 40.160156 421.347656 39.933594 L 373.621094 87.660156 C 373.847656 88.109375 374.105469 88.5625 374.363281 89.011719 Z M 390.875 38.933594 C 389.359375 39.609375 387.875 40.382812 386.457031 41.253906 L 374.976562 52.734375 C 374.074219 54.152344 373.300781 55.636719 372.65625 57.152344 Z M 404.324219 35.964844 L 369.6875 70.601562 C 369.6875 71.308594 369.6875 71.988281 369.722656 72.695312 L 406.386719 36 C 405.710938 35.964844 405 35.964844 404.324219 35.964844 Z M 440.472656 71.179688 L 404.902344 106.75 C 405.613281 106.75 406.355469 106.75 407.0625 106.683594 L 440.40625 73.339844 C 440.441406 72.632812 440.472656 71.890625 440.472656 71.179688 Z M 427.671875 44.125 C 427.28125 43.800781 426.894531 43.480469 426.507812 43.191406 L 376.910156 92.785156 C 377.203125 93.171875 377.523438 93.5625 377.847656 93.949219 Z M 402.097656 36.09375 C 401.292969 36.160156 400.515625 36.257812 399.710938 36.386719 L 370.109375 65.988281 C 369.980469 66.796875 369.882812 67.570312 369.816406 68.375 Z M 397.132812 36.867188 C 396.164062 37.09375 395.195312 37.351562 394.230469 37.675781 L 371.367188 60.507812 C 371.074219 61.472656 370.785156 62.410156 370.558594 63.410156 Z M 413.738281 37.03125 C 413.160156 36.902344 412.609375 36.773438 412.03125 36.644531 L 370.367188 78.308594 C 370.496094 78.886719 370.625 79.4375 370.753906 80.015625 Z M 439.828125 78.113281 C 439.988281 77.277344 440.117188 76.46875 440.214844 75.628906 L 409.351562 106.492188 C 410.191406 106.394531 411.03125 106.265625 411.835938 106.105469 Z M 440.40625 69.148438 C 440.375 68.503906 440.3125 67.859375 440.246094 67.214844 L 400.9375 106.492188 C 401.582031 106.554688 402.226562 106.621094 402.871094 106.652344 Z M 439.957031 65.375 C 439.859375 64.796875 439.730469 64.214844 439.601562 63.632812 L 397.324219 105.878906 C 397.90625 106.007812 398.484375 106.136719 399.066406 106.234375 Z M 429.863281 46.09375 C 429.507812 45.738281 429.152344 45.414062 428.796875 45.058594 L 378.816406 95.042969 C 379.136719 95.398438 379.492188 95.753906 379.847656 96.109375 Z M 431.925781 94.398438 C 433.699219 92.335938 435.183594 90.140625 436.410156 87.820312 L 421.542969 102.6875 C 423.863281 101.460938 426.058594 99.976562 428.121094 98.203125 Z M 439.183594 61.957031 C 439.019531 61.410156 438.859375 60.894531 438.699219 60.34375 L 394.066406 104.976562 C 394.617188 105.136719 395.132812 105.296875 395.679688 105.460938 Z M 438.152344 84.015625 C 438.539062 82.984375 438.890625 81.953125 439.183594 80.886719 L 414.609375 105.460938 C 415.671875 105.167969 416.707031 104.816406 417.738281 104.429688 Z M 433.765625 50.605469 C 433.472656 50.21875 433.183594 49.800781 432.863281 49.414062 L 383.136719 99.105469 C 383.523438 99.429688 383.941406 99.71875 384.328125 100.011719 Z M 438.152344 58.796875 C 437.957031 58.28125 437.761719 57.796875 437.539062 57.3125 L 391.003906 103.847656 C 391.488281 104.074219 392.003906 104.265625 392.488281 104.460938 Z M 431.894531 48.253906 C 431.570312 47.867188 431.25 47.511719 430.894531 47.15625 L 380.878906 97.171875 C 381.234375 97.527344 381.621094 97.847656 381.976562 98.171875 Z M 435.410156 53.121094 C 435.152344 52.703125 434.894531 52.25 434.601562 51.832031 L 385.554688 100.878906 C 385.972656 101.171875 386.394531 101.429688 386.84375 101.6875 Z M 436.894531 55.863281 C 436.667969 55.410156 436.441406 54.929688 436.183594 54.476562 L 388.199219 102.460938 C 388.648438 102.71875 389.101562 102.945312 389.585938 103.171875 Z M 436.894531 55.863281 " fill-opacity="1" fill-rule="nonzero"/></g><g clip-path="url(#6c71ac7913)"><path fill="#d9d9d9" d="M 643.398438 529.136719 C 643 528.082031 642.671875 526.960938 642.34375 525.90625 L 732.621094 435.628906 C 733.675781 435.957031 734.796875 436.285156 735.851562 436.683594 Z M 722.078125 433.320312 C 720.824219 433.125 719.507812 432.992188 718.257812 432.859375 L 639.507812 511.605469 C 639.640625 512.859375 639.773438 514.175781 639.96875 515.429688 Z M 752.785156 445.445312 C 751.929688 444.851562 751.074219 444.261719 750.214844 443.734375 L 650.382812 543.566406 C 650.910156 544.421875 651.503906 545.28125 652.09375 546.136719 Z M 741.914062 439.1875 C 740.925781 438.726562 739.9375 438.261719 738.949219 437.867188 L 644.582031 532.234375 C 644.976562 533.222656 645.441406 534.210938 645.902344 535.199219 Z M 747.515625 442.152344 C 746.589844 441.625 745.667969 441.097656 744.746094 440.636719 L 647.21875 538.164062 C 647.679688 539.085938 648.207031 540.007812 648.734375 540.929688 Z M 682.472656 438.59375 C 679.375 439.976562 676.34375 441.558594 673.445312 443.335938 L 649.988281 466.796875 C 648.140625 469.695312 646.558594 472.726562 645.242188 475.824219 Z M 709.953125 432.53125 L 639.179688 503.304688 C 639.179688 504.753906 639.179688 506.136719 639.246094 507.585938 L 714.171875 432.597656 C 712.785156 432.53125 711.335938 432.53125 709.953125 432.53125 Z M 783.824219 504.488281 L 711.140625 577.175781 C 712.589844 577.175781 714.105469 577.175781 715.554688 577.042969 L 783.691406 508.90625 C 783.757812 507.457031 783.824219 505.941406 783.824219 504.488281 Z M 757.664062 449.203125 C 756.871094 448.542969 756.082031 447.882812 755.289062 447.292969 L 653.941406 548.640625 C 654.535156 549.433594 655.191406 550.222656 655.851562 551.011719 Z M 705.40625 432.792969 C 703.757812 432.925781 702.175781 433.125 700.53125 433.386719 L 640.035156 493.878906 C 639.773438 495.527344 639.574219 497.109375 639.441406 498.757812 Z M 695.257812 434.375 C 693.28125 434.835938 691.304688 435.363281 689.328125 436.023438 L 642.605469 482.679688 C 642.011719 484.65625 641.417969 486.566406 640.957031 488.609375 Z M 729.195312 434.703125 C 728.007812 434.441406 726.886719 434.175781 725.703125 433.914062 L 640.5625 519.054688 C 640.828125 520.238281 641.089844 521.359375 641.355469 522.546875 Z M 782.503906 518.65625 C 782.835938 516.945312 783.097656 515.296875 783.296875 513.582031 L 720.234375 576.648438 C 721.945312 576.449219 723.660156 576.1875 725.308594 575.855469 Z M 783.691406 500.339844 C 783.625 499.019531 783.496094 497.703125 783.363281 496.382812 L 703.035156 576.648438 C 704.351562 576.777344 705.667969 576.910156 706.988281 576.976562 Z M 782.769531 492.628906 C 782.570312 491.441406 782.308594 490.257812 782.042969 489.070312 L 695.652344 575.394531 C 696.839844 575.660156 698.027344 575.921875 699.210938 576.121094 Z M 762.144531 453.222656 C 761.417969 452.496094 760.695312 451.839844 759.96875 451.113281 L 657.828125 553.253906 C 658.488281 553.980469 659.210938 554.703125 659.9375 555.429688 Z M 766.359375 551.9375 C 769.984375 547.71875 773.015625 543.238281 775.519531 538.492188 L 745.140625 568.871094 C 749.886719 566.367188 754.367188 563.335938 758.585938 559.710938 Z M 781.1875 485.644531 C 780.859375 484.523438 780.527344 483.46875 780.199219 482.347656 L 688.996094 573.550781 C 690.117188 573.878906 691.171875 574.210938 692.292969 574.539062 Z M 779.078125 530.71875 C 779.871094 528.609375 780.59375 526.5 781.1875 524.324219 L 730.972656 574.539062 C 733.148438 573.945312 735.257812 573.222656 737.367188 572.429688 Z M 770.117188 462.449219 C 769.523438 461.65625 768.929688 460.800781 768.273438 460.007812 L 666.660156 561.558594 C 667.449219 562.214844 668.304688 562.808594 669.097656 563.402344 Z M 779.078125 479.183594 C 778.683594 478.132812 778.289062 477.144531 777.828125 476.152344 L 682.738281 571.242188 C 683.726562 571.707031 684.78125 572.101562 685.769531 572.496094 Z M 766.296875 457.636719 C 765.636719 456.847656 764.976562 456.121094 764.253906 455.398438 L 662.046875 557.601562 C 662.769531 558.328125 663.5625 558.988281 664.285156 559.644531 Z M 773.476562 467.585938 C 772.949219 466.730469 772.421875 465.808594 771.832031 464.953125 L 671.601562 565.179688 C 672.457031 565.773438 673.3125 566.300781 674.238281 566.828125 Z M 776.507812 473.1875 C 776.046875 472.265625 775.585938 471.277344 775.058594 470.355469 L 677.003906 568.410156 C 677.925781 568.9375 678.847656 569.398438 679.839844 569.859375 Z M 776.507812 473.1875 " fill-opacity="1" fill-rule="nonzero"/></g><g clip-path="url(#dd7620978e)"><path fill="#d9d9d9" d="M 130.722656 731.460938 C 130.503906 730.875 130.320312 730.257812 130.136719 729.671875 L 180.128906 679.683594 C 180.710938 679.863281 181.332031 680.046875 181.917969 680.265625 Z M 174.289062 678.40625 C 173.597656 678.296875 172.867188 678.222656 172.175781 678.148438 L 128.570312 721.753906 C 128.644531 722.449219 128.714844 723.175781 128.824219 723.871094 Z M 191.292969 685.117188 C 190.820312 684.789062 190.347656 684.460938 189.871094 684.171875 L 134.589844 739.453125 C 134.882812 739.925781 135.210938 740.398438 135.539062 740.875 Z M 185.273438 681.652344 C 184.726562 681.398438 184.179688 681.140625 183.632812 680.921875 L 131.378906 733.175781 C 131.597656 733.722656 131.855469 734.269531 132.109375 734.816406 Z M 188.375 683.292969 C 187.863281 683.003906 187.355469 682.710938 186.84375 682.457031 L 132.839844 736.460938 C 133.09375 736.96875 133.386719 737.480469 133.679688 737.992188 Z M 152.359375 681.324219 C 150.644531 682.089844 148.96875 682.964844 147.363281 683.953125 L 134.371094 696.941406 C 133.351562 698.546875 132.472656 700.226562 131.746094 701.941406 Z M 167.578125 677.96875 L 128.386719 717.15625 C 128.386719 717.960938 128.386719 718.726562 128.421875 719.527344 L 169.910156 678.003906 C 169.144531 677.96875 168.34375 677.96875 167.578125 677.96875 Z M 208.480469 717.8125 L 168.234375 758.0625 C 169.035156 758.0625 169.875 758.0625 170.679688 757.988281 L 208.40625 720.257812 C 208.445312 719.457031 208.480469 718.617188 208.480469 717.8125 Z M 193.996094 687.199219 C 193.558594 686.832031 193.121094 686.46875 192.679688 686.140625 L 136.5625 742.261719 C 136.890625 742.699219 137.253906 743.136719 137.617188 743.574219 Z M 165.058594 678.113281 C 164.148438 678.1875 163.269531 678.296875 162.359375 678.441406 L 128.863281 711.9375 C 128.714844 712.851562 128.605469 713.726562 128.53125 714.636719 Z M 159.441406 678.988281 C 158.34375 679.242188 157.25 679.535156 156.15625 679.902344 L 130.285156 705.734375 C 129.957031 706.828125 129.628906 707.886719 129.371094 709.019531 Z M 178.230469 679.171875 C 177.574219 679.023438 176.953125 678.878906 176.296875 678.734375 L 129.152344 725.878906 C 129.300781 726.535156 129.445312 727.15625 129.589844 727.8125 Z M 207.75 725.660156 C 207.933594 724.710938 208.078125 723.796875 208.1875 722.847656 L 173.269531 757.769531 C 174.21875 757.660156 175.167969 757.511719 176.078125 757.332031 Z M 208.40625 715.515625 C 208.371094 714.785156 208.296875 714.054688 208.226562 713.324219 L 163.746094 757.769531 C 164.476562 757.84375 165.203125 757.914062 165.933594 757.953125 Z M 207.898438 711.246094 C 207.789062 710.589844 207.640625 709.929688 207.496094 709.273438 L 159.660156 757.074219 C 160.316406 757.222656 160.972656 757.367188 161.628906 757.476562 Z M 196.476562 689.425781 C 196.074219 689.023438 195.671875 688.660156 195.273438 688.257812 L 138.714844 744.816406 C 139.078125 745.214844 139.480469 745.617188 139.882812 746.019531 Z M 198.8125 744.085938 C 200.820312 741.75 202.496094 739.269531 203.882812 736.640625 L 187.0625 753.464844 C 189.6875 752.078125 192.171875 750.398438 194.503906 748.390625 Z M 207.023438 707.378906 C 206.839844 706.757812 206.65625 706.171875 206.472656 705.554688 L 155.972656 756.054688 C 156.59375 756.238281 157.175781 756.417969 157.796875 756.601562 Z M 205.855469 732.335938 C 206.292969 731.167969 206.691406 730 207.023438 728.796875 L 179.214844 756.601562 C 180.421875 756.273438 181.589844 755.871094 182.757812 755.433594 Z M 200.890625 694.53125 C 200.5625 694.09375 200.234375 693.621094 199.871094 693.183594 L 143.601562 749.414062 C 144.042969 749.777344 144.515625 750.105469 144.953125 750.433594 Z M 205.855469 703.800781 C 205.636719 703.21875 205.417969 702.671875 205.160156 702.121094 L 152.507812 754.777344 C 153.054688 755.03125 153.636719 755.25 154.183594 755.46875 Z M 198.773438 691.871094 C 198.410156 691.429688 198.046875 691.03125 197.644531 690.628906 L 141.050781 747.222656 C 141.449219 747.625 141.886719 747.988281 142.289062 748.355469 Z M 202.753906 697.378906 C 202.460938 696.90625 202.167969 696.394531 201.839844 695.917969 L 146.339844 751.417969 C 146.8125 751.75 147.289062 752.039062 147.800781 752.332031 Z M 204.429688 700.480469 C 204.175781 699.96875 203.921875 699.421875 203.628906 698.910156 L 149.332031 753.207031 C 149.84375 753.5 150.355469 753.753906 150.902344 754.011719 Z M 204.429688 700.480469 " fill-opacity="1" fill-rule="nonzero"/></g><g clip-path="url(#afbbb6f2a5)"><path fill="#d9d9d9" d="M 480.542969 736.914062 C 480.238281 736.097656 479.980469 735.226562 479.726562 734.40625 L 549.859375 664.273438 C 550.679688 664.527344 551.550781 664.785156 552.367188 665.089844 Z M 541.667969 662.480469 C 540.695312 662.328125 539.671875 662.222656 538.699219 662.121094 L 477.523438 723.296875 C 477.625 724.269531 477.730469 725.292969 477.882812 726.265625 Z M 565.523438 671.898438 C 564.859375 671.4375 564.195312 670.976562 563.527344 670.570312 L 485.972656 748.125 C 486.378906 748.792969 486.839844 749.457031 487.300781 750.125 Z M 557.078125 667.035156 C 556.308594 666.679688 555.542969 666.320312 554.773438 666.011719 L 481.464844 739.320312 C 481.773438 740.089844 482.132812 740.855469 482.488281 741.625 Z M 561.429688 669.339844 C 560.710938 668.929688 559.996094 668.519531 559.28125 668.164062 L 483.511719 743.929688 C 483.871094 744.644531 484.28125 745.363281 484.691406 746.078125 Z M 510.902344 666.574219 C 508.496094 667.652344 506.140625 668.878906 503.886719 670.261719 L 485.664062 688.488281 C 484.230469 690.738281 483 693.09375 481.976562 695.5 Z M 532.25 661.867188 L 477.269531 716.847656 C 477.269531 717.972656 477.269531 719.050781 477.320312 720.175781 L 535.527344 661.917969 C 534.449219 661.867188 533.324219 661.867188 532.25 661.867188 Z M 589.636719 717.769531 L 533.171875 774.234375 C 534.296875 774.234375 535.472656 774.234375 536.601562 774.132812 L 589.535156 721.199219 C 589.585938 720.074219 589.636719 718.894531 589.636719 717.769531 Z M 569.3125 674.816406 C 568.699219 674.304688 568.085938 673.792969 567.46875 673.332031 L 488.734375 752.070312 C 489.195312 752.683594 489.707031 753.296875 490.21875 753.910156 Z M 528.71875 662.070312 C 527.4375 662.171875 526.207031 662.328125 524.929688 662.53125 L 477.933594 709.527344 C 477.730469 710.808594 477.574219 712.035156 477.472656 713.316406 Z M 520.832031 663.300781 C 519.296875 663.65625 517.761719 664.066406 516.226562 664.578125 L 479.929688 700.824219 C 479.46875 702.359375 479.007812 703.84375 478.648438 705.429688 Z M 547.199219 663.554688 C 546.277344 663.351562 545.40625 663.144531 544.484375 662.941406 L 478.34375 729.082031 C 478.546875 730.003906 478.753906 730.875 478.957031 731.796875 Z M 588.613281 728.777344 C 588.867188 727.445312 589.074219 726.164062 589.226562 724.832031 L 540.234375 773.824219 C 541.566406 773.671875 542.898438 773.46875 544.175781 773.210938 Z M 589.535156 714.542969 C 589.484375 713.519531 589.382812 712.496094 589.277344 711.472656 L 526.875 773.824219 C 527.898438 773.929688 528.921875 774.03125 529.945312 774.082031 Z M 588.816406 708.554688 C 588.664062 707.632812 588.460938 706.710938 588.253906 705.789062 L 521.140625 772.851562 C 522.0625 773.058594 522.984375 773.261719 523.90625 773.417969 Z M 572.792969 677.941406 C 572.230469 677.378906 571.667969 676.867188 571.105469 676.300781 L 491.753906 755.652344 C 492.265625 756.214844 492.832031 756.777344 493.394531 757.339844 Z M 576.070312 754.628906 C 578.886719 751.351562 581.242188 747.871094 583.1875 744.183594 L 559.585938 767.785156 C 563.273438 765.839844 566.753906 763.484375 570.03125 760.667969 Z M 587.589844 703.128906 C 587.332031 702.257812 587.078125 701.4375 586.820312 700.566406 L 515.96875 771.417969 C 516.839844 771.675781 517.660156 771.929688 518.53125 772.1875 Z M 585.949219 738.144531 C 586.566406 736.503906 587.128906 734.867188 587.589844 733.179688 L 548.578125 772.1875 C 550.269531 771.726562 551.90625 771.164062 553.546875 770.550781 Z M 578.988281 685.109375 C 578.527344 684.492188 578.066406 683.828125 577.554688 683.214844 L 498.617188 762.101562 C 499.230469 762.613281 499.894531 763.074219 500.507812 763.535156 Z M 585.949219 698.109375 C 585.644531 697.292969 585.335938 696.523438 584.976562 695.757812 L 511.105469 769.628906 C 511.875 769.984375 512.695312 770.292969 513.460938 770.601562 Z M 576.019531 681.371094 C 575.507812 680.757812 574.996094 680.191406 574.433594 679.628906 L 495.03125 759.03125 C 495.59375 759.59375 496.210938 760.105469 496.773438 760.617188 Z M 581.601562 689.101562 C 581.191406 688.433594 580.78125 687.71875 580.320312 687.054688 L 502.453125 764.917969 C 503.121094 765.378906 503.785156 765.789062 504.503906 766.199219 Z M 583.953125 693.453125 C 583.597656 692.734375 583.238281 691.96875 582.828125 691.25 L 506.652344 767.425781 C 507.371094 767.835938 508.085938 768.195312 508.855469 768.550781 Z M 583.953125 693.453125 " fill-opacity="1" fill-rule="nonzero"/></g></svg>